<svg xmlns="http://www.w3.org/2000/svg" viewBox="0 0 128 128" width="128" height="128">
  <defs>
    <linearGradient id="ig-gradient" x1="0%" y1="0%" x2="100%" y2="100%">
      <stop offset="0%" style="stop-color:#833ab4"/>
      <stop offset="50%" style="stop-color:#fd1d1d"/>
      <stop offset="100%" style="stop-color:#f77737"/>
    </linearGradient>
  </defs>
  <rect width="128" height="128" rx="28" fill="url(#ig-gradient)"/>
  <path d="M64 36c-7.2 0-8.1 0-10.9.1-2.8.1-4.7.4-6.4.9-1.7.5-3.2 1.1-4.6 2.1-1.4 1-2.7 2.2-3.7 3.7-1 1.4-1.6 2.9-2.1 4.6-.5 1.7-.8 3.6-.9 6.4-.1 2.8-.1 3.7-.1 10.9s0 8.1.1 10.9c.1 2.8.4 4.7.9 6.4.5 1.7 1.1 3.2 2.1 4.6 1 1.4 2.2 2.7 3.7 3.7 1.4 1 2.9 1.6 4.6 2.1 1.7.5 3.6.8 6.4.9 2.8.1 3.7.1 10.9.1s8.1 0 10.9-.1c2.8-.1 4.7-.4 6.4-.9 1.7-.5 3.2-1.1 4.6-2.1 1.4-1 2.7-2.2 3.7-3.7 1-1.4 1.6-2.9 2.1-4.6.5-1.7.8-3.6.9-6.4.1-2.8.1-3.7.1-10.9s0-8.1-.1-10.9c-.1-2.8-.4-4.7-.9-6.4-.5-1.7-1.1-3.2-2.1-4.6-1-1.4-2.2-2.7-3.7-3.7-1.4-1-2.9-1.6-4.6-2.1-1.7-.5-3.6-.8-6.4-.9-2.8-.1-3.7-.1-10.9-.1zM64 43.4c7.1 0 7.9 0 10.7.1 2.6.1 4 .6 4.9.9 1.2.5 2.1 1 3 1.9.9.9 1.4 1.8 1.9 3 .3.9.8 2.3.9 4.9.1 2.8.1 3.6.1 10.7s0 7.9-.1 10.7c-.1 2.6-.6 4-.9 4.9-.5 1.2-1 2.1-1.9 3-.9.9-1.8 1.4-3 1.9-.9.3-2.3.8-4.9.9-2.8.1-3.6.1-10.7.1s-7.9 0-10.7-.1c-2.6-.1-4-.6-4.9-.9-1.2-.5-2.1-1-3-1.9-.9-.9-1.4-1.8-1.9-3-.3-.9-.8-2.3-.9-4.9-.1-2.8-.1-3.6-.1-10.7s0-7.9.1-10.7c.1-2.6.6-4 .9-4.9.5-1.2 1-2.1 1.9-3 .9-.9 1.8-1.4 3-1.9.9-.3 2.3-.8 4.9-.9 2.8-.1 3.6-.1 10.7-.1z" fill="white"/>
  <circle cx="64" cy="64" r="13.5" stroke="white" stroke-width="6.5" fill="none"/>
  <circle cx="85.5" cy="42.5" r="3.2" fill="white"/>
  <path d="M40 36 L45 36 L45 41 L40 41 Z" fill="white" fill-opacity="0.9"/>
</svg>